<?xml version="1.0" standalone="no"?>
<!DOCTYPE svg PUBLIC "-//W3C//DTD SVG 20010904//EN"
 "http://www.w3.org/TR/2001/REC-SVG-20010904/DTD/svg10.dtd">
<svg version="1.0" xmlns="http://www.w3.org/2000/svg"
 width="512.000000pt" height="512.000000pt" viewBox="0 0 512.000000 512.000000"
 preserveAspectRatio="xMidYMid meet">
<metadata>
Created by potrace 1.14, written by Peter Selinger 2001-2017
</metadata>
<g transform="translate(0.000000,512.000000) scale(0.100000,-0.100000)"
fill="#000000" stroke="none">
<path d="M1059 5116 c-2 -3 -27 -7 -54 -9 -69 -7 -152 -25 -175 -37 -11 -6
-20 -8 -20 -5 0 3 -15 -1 -32 -8 -18 -8 -37 -15 -43 -17 -52 -14 -217 -96
-244 -122 -11 -10 -24 -18 -28 -18 -4 0 -35 -25 -68 -55 -33 -30 -63 -55 -67
-55 -5 0 -8 -4 -8 -10 0 -5 -8 -18 -17 -28 -67 -71 -138 -210 -146 -287 -2
-11 -5 -24 -9 -30 -3 -5 -5 -892 -5 -1970 0 -1692 2 -1969 15 -2025 8 -36 20
-68 26 -72 6 -4 8 -8 3 -8 -9 0 26 -71 57 -115 32 -46 136 -145 152 -145 8 0
14 -4 14 -8 0 -12 87 -52 160 -73 63 -18 128 -19 1725 -17 1572 3 1662 4 1705
21 25 10 50 19 55 21 28 8 54 22 95 50 68 45 63 41 127 112 12 13 36 48 54 77
23 38 46 61 82 82 56 31 181 148 170 158 -3 4 -1 7 5 7 7 0 12 7 12 15 0 8 4
15 8 15 19 0 70 142 79 215 3 28 6 74 7 103 1 47 4 54 31 71 110 68 222 235
243 361 6 39 8 3139 2 3183 -3 15 -7 27 -11 27 -4 0 -6 12 -4 26 1 14 -3 31
-10 37 -6 7 -11 20 -9 30 1 9 -2 19 -7 23 -5 3 -7 10 -4 15 4 5 1 9 -4 9 -6 0
-11 9 -11 20 0 11 -4 20 -10 20 -5 0 -9 3 -8 8 3 9 -31 72 -48 90 -8 7 -14 17
-14 21 0 4 -27 35 -60 69 -70 73 -175 143 -263 177 -152 57 -71 54 -1828 55
-889 0 -1618 -2 -1620 -4z"/>
</g>
</svg>
